<svg xmlns="http://www.w3.org/2000/svg" width="39.382" height="45.008" viewBox="0 0 39.382 45.008"><defs><style>.a{fill:#1323a7;}</style></defs><path class="a" d="M38.327,14.065H1.055A1.055,1.055,0,0,1,0,13.01V9.845A4.219,4.219,0,0,1,4.219,5.626H8.439V1.055A1.055,1.055,0,0,1,9.494,0H13.01a1.055,1.055,0,0,1,1.055,1.055V5.626H25.317V1.055A1.055,1.055,0,0,1,26.372,0h3.516a1.055,1.055,0,0,1,1.055,1.055V5.626h4.219a4.219,4.219,0,0,1,4.219,4.219V13.01A1.055,1.055,0,0,1,38.327,14.065ZM1.055,16.878H38.327a1.055,1.055,0,0,1,1.055,1.055V40.788a4.219,4.219,0,0,1-4.219,4.219H4.219A4.219,4.219,0,0,1,0,40.788V17.933A1.055,1.055,0,0,1,1.055,16.878Zm29.3,8.434-2.476-2.5a1.055,1.055,0,0,0-1.492-.006l-9.321,9.246-4.042-4.075a1.055,1.055,0,0,0-1.492-.006l-2.5,2.476a1.055,1.055,0,0,0-.006,1.492l7.261,7.32a1.055,1.055,0,0,0,1.492.006L30.348,26.8a1.055,1.055,0,0,0,.006-1.492Z"/></svg>