<?xml version="1.0" encoding="utf-8"?>
<!-- Generator: Adobe Illustrator 16.0.0, SVG Export Plug-In . SVG Version: 6.00 Build 0)  -->
<!DOCTYPE svg PUBLIC "-//W3C//DTD SVG 1.1//EN" "http://www.w3.org/Graphics/SVG/1.1/DTD/svg11.dtd">
<svg version="1.1" id="Capa_1" xmlns="http://www.w3.org/2000/svg" xmlns:xlink="http://www.w3.org/1999/xlink" x="0px" y="0px"
	 width="120px" height="115px" viewBox="0 0 120 115" enable-background="new 0 0 120 115" xml:space="preserve">
<g transform="translate(-731.66 45.883)">
	<path fill="#F3F3F3" d="M851.66,11.617c0,6.154-6.762,11.165-8.564,16.719c-1.869,5.756,0.594,13.772-2.893,18.563
		c-3.521,4.839-11.927,4.956-16.764,8.478c-4.789,3.486-7.48,11.467-13.233,13.336c-5.552,1.799-12.394-3.013-18.546-3.013
		c-6.153,0-12.994,4.815-18.546,3.013c-5.754-1.869-8.445-9.85-13.234-13.337c-4.837-3.521-13.244-3.64-16.764-8.478
		c-3.486-4.79-1.024-12.807-2.892-18.563c-1.8-5.553-8.565-10.563-8.565-16.719s6.763-11.164,8.566-16.716
		c1.868-5.756-0.594-13.773,2.892-18.563c3.521-4.839,11.927-4.957,16.764-8.478c4.789-3.486,7.48-11.467,13.234-13.336
		c5.552-1.8,12.393,3.012,18.546,3.012c6.153,0,12.994-4.815,18.545-3.012c5.754,1.869,8.445,9.85,13.234,13.336
		c4.837,3.522,13.243,3.64,16.764,8.478c3.485,4.79,1.022,12.807,2.892,18.563C844.9,0.452,851.66,5.463,851.66,11.617z"/>
</g>
<path fill="#071BCE" d="M71.684,54.771L52.04,38.513C50.444,37.198,48,38.474,48,41.74v32.508c0,2.93,2.271,4.7,4.04,3.228
	l19.644-16.25C73.438,59.432,73.438,56.565,71.684,54.771L71.684,54.771z"/>
</svg>
