<svg xmlns="http://www.w3.org/2000/svg" xmlns:xlink="http://www.w3.org/1999/xlink" width="136.491" height="200" viewBox="0 0 136.491 200"><defs><style>.a{opacity:0.196;fill:url(#a);}</style><linearGradient id="a" x1="1.801" y1="-0.194" x2="2.677" y2="-0.194" gradientUnits="objectBoundingBox"><stop offset="0" stop-color="#a3c0ff"/><stop offset="0.266" stop-color="#a3b6f4" stop-opacity="0"/><stop offset="1" stop-color="#a3b6f4" stop-opacity="0"/></linearGradient></defs><path class="a" d="M5.679,56.484a3.327,3.327,0,1,0-4.705,0A3.327,3.327,0,0,0,5.679,56.484Zm8.468,13.173a3.326,3.326,0,1,1,4.7,0A3.324,3.324,0,0,1,14.147,69.657ZM27.318,82.829a3.326,3.326,0,1,1,4.7,0A3.327,3.327,0,0,1,27.318,82.829ZM40.491,96a3.327,3.327,0,1,1,4.7,0A3.326,3.326,0,0,1,40.491,96Zm13.172,13.172a3.326,3.326,0,1,1,4.7,0A3.327,3.327,0,0,1,53.663,109.173Zm13.172,13.173a3.327,3.327,0,1,1,4.705,0A3.328,3.328,0,0,1,66.834,122.346Zm13.173,13.172a3.326,3.326,0,1,1,4.7,0A3.327,3.327,0,0,1,80.007,135.517ZM13.677,43.783a3.326,3.326,0,1,1,4.7,0A3.324,3.324,0,0,1,13.677,43.783ZM26.848,56.956a3.327,3.327,0,1,1,4.7,0A3.328,3.328,0,0,1,26.848,56.956ZM40.02,70.127a3.327,3.327,0,1,1,4.705,0A3.327,3.327,0,0,1,40.02,70.127ZM53.192,83.3a3.326,3.326,0,1,1,4.7,0A3.327,3.327,0,0,1,53.192,83.3ZM66.364,96.472a3.327,3.327,0,1,1,4.705,0A3.327,3.327,0,0,1,66.364,96.472Zm13.173,13.172a3.326,3.326,0,1,1,4.7,0A3.324,3.324,0,0,1,79.537,109.643Zm13.172,13.173a3.327,3.327,0,1,1,4.7,0A3.328,3.328,0,0,1,92.708,122.816ZM26.378,31.082a3.326,3.326,0,1,1,4.7,0A3.327,3.327,0,0,1,26.378,31.082ZM39.549,44.253a3.327,3.327,0,1,1,4.705,0A3.327,3.327,0,0,1,39.549,44.253ZM52.722,57.426a3.327,3.327,0,1,1,4.7,0A3.328,3.328,0,0,1,52.722,57.426ZM65.894,70.6a3.326,3.326,0,1,1,4.7,0A3.327,3.327,0,0,1,65.894,70.6ZM79.066,83.77a3.327,3.327,0,1,1,4.7,0A3.326,3.326,0,0,1,79.066,83.77ZM92.238,96.942a3.326,3.326,0,1,1,4.7,0A3.327,3.327,0,0,1,92.238,96.942Zm13.172,13.171a3.327,3.327,0,1,1,4.705,0A3.327,3.327,0,0,1,105.409,110.113ZM39.079,18.381a3.327,3.327,0,1,1,4.7,0A3.328,3.328,0,0,1,39.079,18.381ZM52.252,31.552a3.326,3.326,0,1,1,4.7,0A3.324,3.324,0,0,1,52.252,31.552ZM65.423,44.724a3.326,3.326,0,1,1,4.7,0A3.327,3.327,0,0,1,65.423,44.724ZM78.595,57.9a3.327,3.327,0,1,1,4.705,0A3.327,3.327,0,0,1,78.595,57.9ZM91.768,71.068a3.326,3.326,0,1,1,4.7,0A3.327,3.327,0,0,1,91.768,71.068Zm13.172,13.173a3.327,3.327,0,1,1,4.705,0A3.328,3.328,0,0,1,104.939,84.241Zm13.173,13.172a3.326,3.326,0,1,1,4.7,0A3.327,3.327,0,0,1,118.112,97.412ZM51.782,5.678a3.326,3.326,0,1,1,4.7,0A3.324,3.324,0,0,1,51.782,5.678ZM64.953,18.851a3.327,3.327,0,1,1,4.7,0A3.328,3.328,0,0,1,64.953,18.851ZM78.125,32.022a3.327,3.327,0,1,1,4.705,0A3.327,3.327,0,0,1,78.125,32.022ZM91.3,45.194a3.326,3.326,0,1,1,4.7,0A3.327,3.327,0,0,1,91.3,45.194Zm13.172,13.173a3.326,3.326,0,1,1,4.7,0A3.327,3.327,0,0,1,104.469,58.367Zm13.173,13.172a3.326,3.326,0,1,1,4.7,0A3.324,3.324,0,0,1,117.642,71.538Zm13.172,13.173a3.326,3.326,0,1,1,4.7,0A3.327,3.327,0,0,1,130.813,84.711ZM77.654,6.148a3.326,3.326,0,1,1,4.7,0A3.327,3.327,0,0,1,77.654,6.148ZM90.827,19.321a3.326,3.326,0,1,1,4.7,0A3.324,3.324,0,0,1,90.827,19.321ZM104,32.493a3.326,3.326,0,1,1,4.7,0A3.327,3.327,0,0,1,104,32.493Zm13.173,13.173a3.327,3.327,0,1,1,4.7,0A3.326,3.326,0,0,1,117.171,45.665Zm13.172,13.172a3.326,3.326,0,1,1,4.7,0A3.327,3.327,0,0,1,130.343,58.837Zm13.172,13.172a3.327,3.327,0,1,1,4.705,0A3.327,3.327,0,0,1,143.514,72.009ZM103.528,6.619a3.326,3.326,0,1,1,4.7,0A3.327,3.327,0,0,1,103.528,6.619ZM116.7,19.791a3.327,3.327,0,1,1,4.705,0A3.327,3.327,0,0,1,116.7,19.791Zm13.173,13.172a3.326,3.326,0,1,1,4.7,0A3.327,3.327,0,0,1,129.873,32.963Zm13.172,13.173a3.326,3.326,0,1,1,4.7,0A3.327,3.327,0,0,1,143.044,46.136Zm13.173,13.172a3.326,3.326,0,1,1,4.7,0A3.324,3.324,0,0,1,156.217,59.307ZM129.4,7.09a3.327,3.327,0,1,1,4.7,0A3.326,3.326,0,0,1,129.4,7.09Zm13.172,13.172a3.326,3.326,0,1,1,4.7,0A3.327,3.327,0,0,1,142.574,20.262Zm13.173,13.172a3.326,3.326,0,1,1,4.7,0A3.324,3.324,0,0,1,155.747,33.433Zm13.172,13.173a3.326,3.326,0,1,1,4.7,0A3.327,3.327,0,0,1,168.918,46.606ZM155.275,7.56a3.327,3.327,0,1,1,4.705,0A3.328,3.328,0,0,1,155.275,7.56Zm13.173,13.172a3.326,3.326,0,1,1,4.7,0A3.327,3.327,0,0,1,168.448,20.732ZM181.619,33.9a3.327,3.327,0,1,1,4.7,0A3.328,3.328,0,0,1,181.619,33.9Zm-.47-25.874a3.326,3.326,0,1,1,4.7,0A3.327,3.327,0,0,1,181.149,8.031ZM194.322,21.2a3.326,3.326,0,1,1,4.7,0A3.324,3.324,0,0,1,194.322,21.2Z" transform="translate(136.491) rotate(90)"/></svg>