<svg xmlns="http://www.w3.org/2000/svg" width="90" height="90" viewBox="0 0 90 90">
  <g id="becas" transform="translate(-806 -1496)">
    <g id="Group_102" data-name="Group 102" transform="translate(0 -196)" opacity="0">
      <g id="Group_81" data-name="Group 81" transform="translate(0 196)">
        <rect id="Rectangle_235" data-name="Rectangle 235" width="90" height="90" rx="45" transform="translate(806 1496)" fill="none"/>
      </g>
    </g>
    <g id="Group_130" data-name="Group 130" transform="translate(639.356 1280.948)">
      <path id="Path_51" data-name="Path 51" d="M241.644,250.986a4.538,4.538,0,0,1-3.071,3.123c-2.722,1.088-5.4,2.293-8.1,3.424a.69.69,0,0,0-.494.765c.02,1.855-.036,3.712.02,5.566a7.746,7.746,0,0,1-3.324,6.593,19.452,19.452,0,0,1-8.718,3.659,29.064,29.064,0,0,1-16.726-1.539,13.326,13.326,0,0,1-5.261-3.706,6.98,6.98,0,0,1-1.682-4.585c0-2.008-.013-4.017.01-6.026a.652.652,0,0,0-.478-.718c-1.312-.535-2.613-1.1-3.919-1.656-.117-.05-.243-.081-.441-.145v.616c0,3.788.006,7.576-.007,11.364a.848.848,0,0,0,.5.893c1.508.824,1.8,2.523.728,4.212,1.066,1.052.867,2.48,1.021,3.805.2,1.709.326,3.426.478,5.14a1.872,1.872,0,0,1-2.1,2.28c-1.056,0-2.113.01-3.169,0a1.839,1.839,0,0,1-1.917-2.176c.221-2.322.393-4.65.659-6.967a10.022,10.022,0,0,1,.622-1.809.814.814,0,0,0,.014-.579,2.765,2.765,0,0,1,1.093-4.02.7.7,0,0,0,.309-.507q.026-6.342,0-12.683a.724.724,0,0,0-.371-.516c-.725-.348-1.475-.643-2.216-.957a3.71,3.71,0,0,1-.029-6.971q11.819-5.046,23.638-10.088a8.5,8.5,0,0,1,6.93.029q11.711,5,23.429,9.991a4.184,4.184,0,0,1,2.578,2.928Zm-50.174,3.5-.023.118c.171.081.339.167.513.242,5.728,2.444,11.461,4.874,17.18,7.337a7.232,7.232,0,0,0,6.016-.009c4.555-1.971,9.125-3.9,13.69-5.851q4.784-2.041,9.569-4.083a2.045,2.045,0,0,0,1.394-1.473c.216-1.075-.244-1.832-1.442-2.344q-11.655-4.981-23.31-9.963a7.089,7.089,0,0,0-5.853.006q-11.358,4.872-22.73,9.709a9.147,9.147,0,0,0-1.143.536,1.861,1.861,0,0,0-.016,3.227,28.268,28.268,0,0,0,2.832,1.262.858.858,0,0,0,.443-.012q3.4-.581,6.8-1.171,5.839-1.011,11.677-2.031c.187-.033.458-.119.518-.256a3.389,3.389,0,0,1,2.539-1.872,6.682,6.682,0,0,1,5.682.784,1.979,1.979,0,0,1-.011,3.412,7.022,7.022,0,0,1-7.431-.092,1.07,1.07,0,0,0-.984-.244q-5.809,1.02-11.621,2.021Q193.616,254.115,191.47,254.49Zm36.671,4.061c-.245.1-.439.175-.631.257-3.877,1.654-7.765,3.284-11.628,4.971a8.946,8.946,0,0,1-7.518-.009c-3.861-1.689-7.75-3.318-11.628-4.97-.2-.084-.4-.148-.667-.242,0,.579.027,1.076-.005,1.569a5.668,5.668,0,0,0,2.185,4.826,16.082,16.082,0,0,0,6.471,3.245,29.331,29.331,0,0,0,10.848.771c.721-.073,1.144.205,1.19.761s-.31.916-1.014.989a30.928,30.928,0,0,1-11.42-.808,17.836,17.836,0,0,1-7.321-3.7c-.245-.216-.477-.446-.715-.67l-.179.122a16.615,16.615,0,0,0,1.085,1.908,11.256,11.256,0,0,0,4.757,3.412,24.157,24.157,0,0,0,8.089,1.852,26.437,26.437,0,0,0,12.341-1.878,11.285,11.285,0,0,0,4.744-3.432,4.475,4.475,0,0,0,.948-2.1c-.182.165-.269.235-.345.316A13.661,13.661,0,0,1,224,268.39a.9.9,0,0,1-1.31-.263.926.926,0,0,1,.484-1.287c.281-.164.574-.308.859-.467C227.348,264.527,228.642,262.093,228.142,258.551Zm-37.7,23.757c-.074-.841-.138-1.58-.2-2.319-.154-1.69-.3-3.382-.468-5.072a1.172,1.172,0,0,0-1.574-1.092,1.33,1.33,0,0,0-.822,1.32c-.151,1.652-.305,3.305-.452,4.958-.063.714-.111,1.429-.172,2.205h3.692Zm18.834-31.963c.828,1.325,4.946,1.3,5.725-.005C214.2,249.023,210.043,249.034,209.273,250.345Zm-19.712,20.627a.962.962,0,0,0-.987-.966,1,1,0,0,0-.98.987,1.032,1.032,0,0,0,1,.98A.994.994,0,0,0,189.561,270.972Z" transform="translate(0)" fill="#c3c8f3"/>
      <path id="Path_52" data-name="Path 52" d="M221.336,268.9a.841.841,0,0,1-.681.768c-.583.18-1.175.343-1.77.479a.877.877,0,1,1-.455-1.69c.583-.179,1.174-.348,1.771-.471A.883.883,0,0,1,221.336,268.9Z" transform="translate(0.144)" fill="#c3c8f3"/>
    </g>
  </g>
</svg>
