<svg xmlns="http://www.w3.org/2000/svg" width="90" height="90" viewBox="0 0 90 90">
  <g id="bono-asist" transform="translate(-544 -1692)">
    <g id="Group_80" data-name="Group 80" transform="translate(0 196)" opacity="0">
      <rect id="Rectangle_234" data-name="Rectangle 234" width="90" height="90" rx="45" transform="translate(544 1496)" fill="none"/>
    </g>
    <g id="XMLID_806_" transform="translate(563 1701.742)">
      <g id="XMLID_386_" transform="translate(0 10.262)">
        <path id="XMLID_389_" d="M49.9,36.569A19.711,19.711,0,0,0,34.576,19.286V16.8a3.32,3.32,0,0,0-.8-6.542H26.743a3.32,3.32,0,0,0-.8,6.542v2.488a19.609,19.609,0,0,0-9.617,5.29,19.821,19.821,0,0,0-1.658,1.882c-.025,0-.049,0-.074,0H7.634a.977.977,0,1,0,0,1.953h5.7a19.577,19.577,0,0,0-1.733,3.754H.977a.977.977,0,0,0,0,1.953H11.053a19.856,19.856,0,0,0-.485,3.754H6.25a.977.977,0,0,0,0,1.953H10.6a19.827,19.827,0,0,0,.61,3.754H4.883a.977.977,0,1,0,0,1.953h6.95A19.724,19.724,0,0,0,28.324,58.163q.968.1,1.935.1a19.774,19.774,0,0,0,10.766-3.182.977.977,0,0,0-1.066-1.637A17.774,17.774,0,1,1,45.194,48.2a.977.977,0,1,0,1.638,1.064A19.79,19.79,0,0,0,49.9,36.569ZM25.376,13.582a1.369,1.369,0,0,1,1.367-1.367h7.031a1.367,1.367,0,1,1,0,2.734H26.743A1.369,1.369,0,0,1,25.376,13.582ZM27.9,18.957V16.9h4.728v2.051A19.9,19.9,0,0,0,27.9,18.957Z" transform="translate(0 -10.262)" fill="#c3c8f3"/>
        <path id="XMLID_391_" d="M436.747,425.5a.977.977,0,1,0,.69.286A.982.982,0,0,0,436.747,425.5Z" transform="translate(-393.214 -384.949)" fill="#c3c8f3"/>
        <path id="XMLID_394_" d="M170.022,144.609a15.15,15.15,0,1,0,15.15,15.15A15.167,15.167,0,0,0,170.022,144.609Zm0,28.346a13.2,13.2,0,1,1,13.2-13.2A13.211,13.211,0,0,1,170.022,172.955Z" transform="translate(-139.748 -131.489)" fill="#c3c8f3"/>
        <path id="XMLID_397_" d="M268.386,219.7l-4.837,4.837a3.027,3.027,0,0,0-2.681,0l-2.165-2.165a.977.977,0,0,0-1.381,1.381l2.165,2.165a3.035,3.035,0,1,0,5.443,0l4.695-4.695h0l.142-.142a.977.977,0,1,0-1.381-1.381Zm-6.177,8.64a1.081,1.081,0,1,1,1.081-1.081A1.083,1.083,0,0,1,262.209,228.337Z" transform="translate(-231.935 -198.986)" fill="#c3c8f3"/>
        <path id="XMLID_398_" d="M399.536,289.86h-.9a.977.977,0,1,0,0,1.953h.9a.977.977,0,1,0,0-1.953Z" transform="translate(-358.821 -262.555)" fill="#c3c8f3"/>
        <path id="XMLID_399_" d="M194.963,289.616h-.9a.977.977,0,1,0,0,1.953h.9a.977.977,0,1,0,0-1.953Z" transform="translate(-174.226 -262.335)" fill="#c3c8f3"/>
        <path id="XMLID_400_" d="M301.1,185.677a.977.977,0,0,0,.977-.977v-.9a.977.977,0,1,0-1.953,0v.9A.977.977,0,0,0,301.1,185.677Z" transform="translate(-270.814 -165.967)" fill="#c3c8f3"/>
        <path id="XMLID_424_" d="M300.856,387.393a.977.977,0,0,0-.977.977v.9a.977.977,0,0,0,1.953,0v-.9A.977.977,0,0,0,300.856,387.393Z" transform="translate(-270.594 -350.563)" fill="#c3c8f3"/>
        <path id="XMLID_425_" d="M.977,351.44a.977.977,0,1,0,.69,1.667.977.977,0,0,0-.69-1.667Z" transform="translate(0 -318.121)" fill="#c3c8f3"/>
      </g>
    </g>
  </g>
</svg>
