<svg xmlns="http://www.w3.org/2000/svg" width="90" height="90" viewBox="0 0 90 90">
  <g id="caja-ahorro" transform="translate(-806 -1692)">
    <g id="Group_81" data-name="Group 81" transform="translate(0 196)" opacity="0">
      <rect id="Rectangle_235" data-name="Rectangle 235" width="90" height="90" rx="45" transform="translate(806 1496)" fill="none"/>
    </g>
    <g id="_003-money" data-name="003-money" transform="translate(826 1709)">
      <g id="Group_68" data-name="Group 68" transform="translate(29.292 27.727)">
        <g id="Group_67" data-name="Group 67">
          <path id="Path_22" data-name="Path 22" d="M304.056,263.248a1.879,1.879,0,1,1,2.148-1.859.977.977,0,1,0,1.953,0,3.886,3.886,0,0,0-3.125-3.7v-.508a.977.977,0,0,0-1.953,0v.508a3.886,3.886,0,0,0-3.125,3.7,3.97,3.97,0,0,0,4.1,3.813,1.879,1.879,0,1,1-2.148,1.86.977.977,0,0,0-1.953,0,3.886,3.886,0,0,0,3.125,3.7v.422a.977.977,0,0,0,1.953,0v-.422a3.886,3.886,0,0,0,3.125-3.7A3.97,3.97,0,0,0,304.056,263.248Z" transform="translate(-299.954 -256.201)" fill="#c3c8f3"/>
        </g>
      </g>
      <g id="Group_70" data-name="Group 70" transform="translate(37.493 24.268)">
        <g id="Group_69" data-name="Group 69">
          <path id="Path_23" data-name="Path 23" d="M390.522,225.481a12.724,12.724,0,0,0-5.2-4.6.977.977,0,1,0-.846,1.76,10.751,10.751,0,0,1,4.842,14.726.977.977,0,1,0,1.724.917,12.709,12.709,0,0,0-.523-12.8Z" transform="translate(-383.924 -220.785)" fill="#c3c8f3"/>
        </g>
      </g>
      <g id="Group_72" data-name="Group 72" transform="translate(33.887 23.117)">
        <g id="Group_71" data-name="Group 71">
          <path id="Path_24" data-name="Path 24" d="M348.042,209h-.066a.977.977,0,0,0,0,1.953h.061a.977.977,0,0,0,0-1.953Z" transform="translate(-347 -209.001)" fill="#c3c8f3"/>
        </g>
      </g>
      <g id="Group_74" data-name="Group 74" transform="translate(20.703 29.339)">
        <g id="Group_73" data-name="Group 73">
          <path id="Path_25" data-name="Path 25" d="M220.049,288.872a10.751,10.751,0,0,1-4.842-14.726.977.977,0,1,0-1.724-.917,12.7,12.7,0,0,0,5.72,17.4.977.977,0,1,0,.846-1.76Z" transform="translate(-212.002 -272.711)" fill="#c3c8f3"/>
        </g>
      </g>
      <g id="Group_76" data-name="Group 76" transform="translate(30.896 46.555)">
        <g id="Group_75" data-name="Group 75">
          <path id="Path_26" data-name="Path 26" d="M317.415,449h-.057a.977.977,0,0,0-.009,1.953h.065a.977.977,0,0,0,0-1.953Z" transform="translate(-316.378 -448.999)" fill="#c3c8f3"/>
        </g>
      </g>
      <g id="Group_78" data-name="Group 78" transform="translate(0 3)">
        <g id="Group_77" data-name="Group 77">
          <path id="Path_27" data-name="Path 27" d="M37.833,19.813a4.482,4.482,0,0,0-.434-.8h2.542a4.492,4.492,0,1,0,0-8.984h-7.82A4.489,4.489,0,0,0,28.418,3H4.492a4.492,4.492,0,1,0,0,8.984h7.82a4.48,4.48,0,0,0,0,5.078H9.766A4.49,4.49,0,0,0,6.974,25.07a4.484,4.484,0,0,0,0,7.031,4.484,4.484,0,0,0,0,7.031,4.49,4.49,0,0,0,2.791,8.008H21.274A16.6,16.6,0,1,0,37.833,19.813Zm2.108-7.829a2.539,2.539,0,1,1,0,5.078H16.016a2.539,2.539,0,1,1,0-5.078ZM4.492,10.031a2.539,2.539,0,0,1,0-5.078H28.418a2.539,2.539,0,0,1,0,5.078Zm5.273,8.984H33.691a2.538,2.538,0,0,1,1.108.255c-.462-.039-.929-.06-1.4-.06a16.55,16.55,0,0,0-11.748,4.883H9.766a2.539,2.539,0,0,1,0-5.078Zm0,7.031H19.982a16.554,16.554,0,0,0-2.51,5.078H9.766a2.539,2.539,0,0,1,0-5.078Zm0,7.031h7.258a16.615,16.615,0,0,0-.06,5.078h-7.2a2.539,2.539,0,1,1,0-5.078Zm0,12.109a2.539,2.539,0,0,1,0-5.078h7.6A16.536,16.536,0,0,0,19.7,45.187ZM33.4,50.461A14.648,14.648,0,1,1,48.047,35.813,14.665,14.665,0,0,1,33.4,50.461Z" transform="translate(0 -3)" fill="#c3c8f3"/>
        </g>
      </g>
    </g>
  </g>
</svg>
