<svg xmlns="http://www.w3.org/2000/svg" width="90" height="90" viewBox="0 0 90 90">
  <g id="descanso-adic" transform="translate(-544 -1888)">
    <g id="Group_105" data-name="Group 105" transform="translate(-262 196)" opacity="0">
      <g id="Group_81" data-name="Group 81" transform="translate(0 196)">
        <rect id="Rectangle_235" data-name="Rectangle 235" width="90" height="90" rx="45" transform="translate(806 1496)" fill="none"/>
      </g>
    </g>
    <g id="Group_131" data-name="Group 131" transform="translate(305.277 1672.533)">
      <path id="Path_53" data-name="Path 53" d="M257.723,277.449V243.482a3.258,3.258,0,0,1,3.73-2.549c.567.04,1.14.006,1.754.006,0-.438-.005-.824,0-1.21a3.248,3.248,0,1,1,6.5-.026c.007.4,0,.8,0,1.2h8.532c0-.374,0-.712,0-1.049a3.252,3.252,0,1,1,6.5-.02c0,.365,0,.729,0,1.077h8.532c0-.414-.005-.8,0-1.187a3.248,3.248,0,1,1,6.5-.014c.007.4,0,.8,0,1.231.827,0,1.585-.005,2.345,0a3.049,3.049,0,0,1,3.14,3.145c0,.434,0,.867,0,1.328.473,0,.877,0,1.281,0a3.047,3.047,0,0,1,3.186,3.2q0,16.318,0,32.637a3.049,3.049,0,0,1-3.228,3.211q-20.536,0-41.073,0a3.059,3.059,0,0,1-3.229-3.261c0-.4,0-.8,0-1.215-.552,0-1.027.016-1.5,0a2.9,2.9,0,0,1-2.432-1.344A8.083,8.083,0,0,1,257.723,277.449Zm2.031-22.247v.533q0,10.422,0,20.844c0,1.068.315,1.379,1.4,1.379H276.49a3.562,3.562,0,0,1,.557.015.973.973,0,0,1,.862.816.917.917,0,0,1-.512,1.061,1.839,1.839,0,0,1-.785.136q-5.889.012-11.779.005h-.61v1.035c0,1.1.306,1.406,1.426,1.406h40.618c1.12,0,1.424-.3,1.424-1.408V248.843a4.352,4.352,0,0,0-.008-.458.979.979,0,0,0-.873-.916c-.5-.038-1-.009-1.556-.009v.633q0,14.287,0,28.572a3.071,3.071,0,0,1-3.318,3.326q-7.769,0-15.537,0a3.466,3.466,0,0,1-.456-.012,1.011,1.011,0,0,1,0-2.009,4.054,4.054,0,0,1,.506-.012h15.385c1.072,0,1.386-.317,1.386-1.4V255.2Zm43.469-2.083v-3.213c0-1.932,0-3.863,0-5.8a1,1,0,0,0-.932-1.122c-.823-.033-1.648-.008-2.52-.008,0,.447.007.85,0,1.252a3.248,3.248,0,0,1-6.5-.021c-.007-.4,0-.8,0-1.2h-8.533c0,.426.007.815,0,1.2a3.248,3.248,0,0,1-6.5.014c-.008-.4,0-.8,0-1.223h-8.532c0,.4,0,.771,0,1.14a3.25,3.25,0,1,1-6.5,0c0-.382,0-.764,0-1.128a1.219,1.219,0,0,0-.171-.036c-.677,0-1.354-.007-2.031,0-.9,0-1.25.363-1.251,1.274q0,4.194,0,8.389v.481Zm-35.547-11.154c0-.727.01-1.454,0-2.181a1.217,1.217,0,1,0-2.43.008q-.017,2.156,0,4.311a1.22,1.22,0,1,0,2.432-.008C267.683,243.385,267.675,242.674,267.675,241.965Zm15.032-.019c0-.71.008-1.42,0-2.13a1.219,1.219,0,1,0-2.432-.005q-.015,2.13,0,4.26a1.222,1.222,0,1,0,2.433.005C282.714,243.367,282.707,242.656,282.707,241.946Zm15.031.011c0-.694.005-1.386,0-2.08a1.225,1.225,0,1,0-2.434-.026q-.01,2.1,0,4.209a1.225,1.225,0,1,0,2.434-.024C297.743,243.344,297.738,242.65,297.738,241.957Z" transform="translate(0)" fill="#c3c8f3"/>
      <path id="Path_54" data-name="Path 54" d="M285.587,274.069a4.544,4.544,0,0,1-.544-.215c-1.066-.551-2.132-1.1-3.186-1.679a.679.679,0,0,0-.742-.008c-1.069.583-2.157,1.13-3.23,1.7a1.053,1.053,0,0,1-1.627-1.2c.228-1.2.434-2.4.611-3.6a.888.888,0,0,0-.218-.653c-.864-.884-1.757-1.74-2.643-2.6a1.038,1.038,0,0,1,.608-1.873c1.156-.154,2.308-.343,3.465-.49a.964.964,0,0,0,.865-.624c.473-1.047,1.013-2.065,1.511-3.1a1.1,1.1,0,0,1,1.028-.764,1.112,1.112,0,0,1,1.017.783c.521,1.082,1.048,2.163,1.605,3.226a.869.869,0,0,0,.538.409c1.249.216,2.505.4,3.76.575a1.02,1.02,0,0,1,.9.7,1,1,0,0,1-.312,1.1c-.9.877-1.8,1.741-2.678,2.639a.948.948,0,0,0-.233.7c.181,1.239.414,2.47.626,3.705A1.034,1.034,0,0,1,285.587,274.069Zm-7.008-2.861c.754-.4,1.414-.7,2.032-1.078a1.533,1.533,0,0,1,1.753.01c.615.37,1.269.673,2.006,1.058-.149-.881-.257-1.649-.414-2.407a1.366,1.366,0,0,1,.425-1.373c.568-.551,1.094-1.146,1.66-1.746-.757-.115-1.534-.259-2.318-.344a1.326,1.326,0,0,1-1.159-.842c-.327-.716-.695-1.412-1.091-2.21-.412.835-.78,1.57-1.138,2.31a1.175,1.175,0,0,1-1.021.725c-.252.02-.5.067-.754.106-.552.085-1.106.173-1.666.262.573.6,1.079,1.171,1.629,1.692a1.419,1.419,0,0,1,.462,1.457C278.824,269.568,278.727,270.323,278.579,271.208Z" transform="translate(0.013 0.049)" fill="#c3c8f3"/>
      <path id="Path_55" data-name="Path 55" d="M282.481,278.889a1.012,1.012,0,1,1-.982-1.018A1.024,1.024,0,0,1,282.481,278.889Z" transform="translate(0.019 0.09)" fill="#c3c8f3"/>
    </g>
  </g>
</svg>
