<svg xmlns="http://www.w3.org/2000/svg" width="90" height="90" viewBox="0 0 90 90">
  <g id="fondo-ahorro" transform="translate(-942 -1300)">
    <g id="Group_154" data-name="Group 154" transform="translate(136 -196)" opacity="0">
      <rect id="Rectangle_235" data-name="Rectangle 235" width="90" height="90" rx="45" transform="translate(806 1496)" fill="none"/>
    </g>
    <g id="Group_155" data-name="Group 155" transform="translate(512.76 1083.419)">
      <path id="Path_46" data-name="Path 46" d="M448.24,267.061a1.181,1.181,0,0,1,.945-.531,3.64,3.64,0,0,0,2.712-1.63c-.184-.053-.326-.085-.461-.135a11.5,11.5,0,0,1-1.343-.51,1.89,1.89,0,0,1-.918-2.885,2.093,2.093,0,0,1,3.2-.683,3.581,3.581,0,0,1,1.438,2.624.551.551,0,0,0,.174.376,3.622,3.622,0,0,0,.124-.424,14.025,14.025,0,0,1,6.929-10.013c.492-.3.937-.224,1.168.173s.1.8-.424,1.108a12.223,12.223,0,0,0-5.5,6.405,14.937,14.937,0,0,0,.59,12.12,12.233,12.233,0,0,0,5.21,5.264,2.192,2.192,0,0,1,1.212,1.732c.243,1.521.582,3.028.859,4.545a.512.512,0,0,0,.6.5c1.013-.015,2.026-.02,3.038,0,.4.008.559-.161.621-.535.137-.817.3-1.629.454-2.444.176-.954.583-1.3,1.537-1.213a32.487,32.487,0,0,0,7.794-.176,1.185,1.185,0,0,1,1.4,1.089c.176.895.359,1.788.5,2.689.066.423.229.6.675.59.979-.026,1.96-.029,2.938,0,.456.015.606-.189.679-.593.317-1.746.663-3.485.978-5.231a1.413,1.413,0,0,1,.79-1.069,14.8,14.8,0,0,0,6.069-5.591,2.35,2.35,0,0,1,1.4-1.044q1.471-.46,2.937-.932a1.4,1.4,0,0,0,1.18-1.595c0-1.03,0-2.059,0-3.088a1.306,1.306,0,0,0-1.016-1.408c-.6-.2-1.195-.4-1.8-.578a2.5,2.5,0,0,1-1.762-1.737,11.685,11.685,0,0,0-1.957-3.667c-.1-.126-.208-.242-.35-.407-.09.2-.163.342-.221.491a3.774,3.774,0,0,1-3.9,2.5,5.723,5.723,0,0,1-5.92-5.809c-.015-.889.1-1.781.158-2.746-.336-.08-.73-.183-1.131-.255a.349.349,0,0,0-.285.127,10.529,10.529,0,0,1-2.94,2.83c.455.144.831.255,1.2.382.526.181.734.529.6.972a.751.751,0,0,1-1.059.433,19.818,19.818,0,0,0-6.067-.973,19.521,19.521,0,0,0-5.931.883c-.158.049-.317.1-.478.134a.7.7,0,0,1-.877-.466.72.72,0,0,1,.441-.934c.213-.089.44-.145.661-.214.2-.063.4-.121.67-.2-.148-.117-.241-.2-.341-.271A10.131,10.131,0,1,1,480.1,241.859q.51.937-.162,1.294c-.425.226-.787.038-1.136-.56a8.471,8.471,0,0,0-7.92-4.5A8.633,8.633,0,0,0,467.91,254.7a1.66,1.66,0,0,0,.772.08,21.636,21.636,0,0,1,5.065,0,1.768,1.768,0,0,0,.907-.136,8.461,8.461,0,0,0,5.171-7.285c.041-.419.116-.8.6-.915a.712.712,0,0,1,.89.783,9.607,9.607,0,0,1-.725,3.336c-.042.106-.081.213-.142.375.727.107,1.332.46,2.14.058a24.88,24.88,0,0,1,5.957-2.19c.162-.033.327-.059.491-.08,1.638-.211,2.367.336,2.621,2a16.336,16.336,0,0,1-.221,5.347.867.867,0,0,0,.166.648,13.738,13.738,0,0,1,2.96,5.019,1.174,1.174,0,0,0,.841.83q.953.283,1.894.607a2.759,2.759,0,0,1,1.933,2.674q.016,1.717,0,3.436a2.751,2.751,0,0,1-1.938,2.668c-1.051.358-2.119.666-3.163,1.038a1.459,1.459,0,0,0-.72.547,16.18,16.18,0,0,1-6.187,5.774.86.86,0,0,0-.49.672c-.3,1.665-.617,3.326-.94,4.985a1.827,1.827,0,0,1-1.955,1.608q-1.618.011-3.237,0a1.819,1.819,0,0,1-1.905-1.546c-.1-.452-.183-.909-.271-1.366s-.172-.906-.256-1.359c-1.335.077-2.637.183-3.941.222s-2.579.008-3.925.008c-.136.71-.3,1.522-.448,2.334a1.864,1.864,0,0,1-2.027,1.708c-1.012,0-2.025,0-3.038,0a1.894,1.894,0,0,1-2.106-1.738c-.294-1.548-.586-3.1-.9-4.638a.879.879,0,0,0-.371-.518,14.215,14.215,0,0,1-7.325-10.409c-.213-1.319-.224-2.67-.336-4.108-.177-.122-.3.053-.449.289a5.354,5.354,0,0,1-3.249,2.533,6.813,6.813,0,0,1-.787.11.95.95,0,0,1-1.025-.538Zm42.1-14.431c-.056-.592-.087-1.19-.176-1.777-.11-.723-.245-.808-.958-.672a26.67,26.67,0,0,0-6.194,2.236,1.018,1.018,0,0,0-.5.675,13.331,13.331,0,0,0-.182,2.615,3.95,3.95,0,0,0,3.33,3.815c2.574.48,3.213-.222,3.854-2.1A16.858,16.858,0,0,0,490.343,252.63Zm-38,10.889a2.089,2.089,0,0,0-1.018-1.731c-.361-.189-.674-.024-.913.407-.2.365-.014.581.281.707C451.2,263.119,451.72,263.291,452.341,263.519Z" transform="translate(0 0)" fill="#c3c8f3"/>
      <path id="Path_47" data-name="Path 47" d="M471.062,251.142c-.027.337.033.757-.43.7-.185-.024-.334-.335-.5-.515l.1-.119a4.95,4.95,0,0,1-1.006-.2,7,7,0,0,1-1.332-.728.834.834,0,0,1-.313-.631,1.063,1.063,0,0,1,.385-.682c.106-.081.445.034.6.157a2.851,2.851,0,0,0,1.686.757c0-.968.008-1.925-.013-2.883,0-.094-.167-.215-.282-.272-.294-.15-.611-.256-.905-.407a2.326,2.326,0,0,1,.324-4.286,2.317,2.317,0,0,0,.729-.3l.572-.571.556.609c.385.1.93.221,1.456.4a.616.616,0,0,1,.452.775.567.567,0,0,1-.851.451c-.276-.109-.551-.224-.833-.319a2.107,2.107,0,0,0-.418-.043c0,.838-.005,1.657.009,2.475,0,.081.115.184.2.233.172.1.363.158.542.245a2.569,2.569,0,0,1,1.614,2.751,2.483,2.483,0,0,1-2.075,2.346C471.259,251.1,471.178,251.115,471.062,251.142Zm-.082-1.344a1.127,1.127,0,0,0,1.126-1.1,1.375,1.375,0,0,0-1.126-1.5Zm-.661-4.441v-2.29c-.772.09-1.164.406-1.22.965C469.035,244.657,469.43,245.1,470.319,245.357Z" transform="translate(0.896 0.212)" fill="#c3c8f3"/>
      <path id="Path_48" data-name="Path 48" d="M486.964,265.021a2.429,2.429,0,0,1-2.433-2.23.765.765,0,0,1,.642-.907c.45-.051.747.2.833.715.1.613.446.947.963.939s.83-.334.925-.92c.086-.534.4-.8.872-.728a.772.772,0,0,1,.609.932A2.427,2.427,0,0,1,486.964,265.021Z" transform="translate(1.681 1.175)" fill="#c3c8f3"/>
    </g>
  </g>
</svg>
