<svg xmlns="http://www.w3.org/2000/svg" width="90" height="90" viewBox="0 0 90 90">
  <g id="gastos-funerarios" transform="translate(-1066 -1692)">
    <g id="Group_104" data-name="Group 104" transform="translate(260)" opacity="0.001">
      <g id="Group_81" data-name="Group 81" transform="translate(0 196)">
        <rect id="Rectangle_235" data-name="Rectangle 235" width="90" height="90" rx="45" transform="translate(806 1496)" fill="none"/>
      </g>
    </g>
    <g id="Group_126" data-name="Group 126" transform="translate(976.559 1477.073)">
      <path id="Path_38" data-name="Path 38" d="M151.242,245.068H140.859v-2.232c0-1.938,0-3.849,0-5.759,0-.847-.306-1.148-1.166-1.148H129.415c-.86,0-1.165.3-1.165,1.148q0,2.7,0,5.406v2.585h-9.563c-.967,0-1.247.271-1.247,1.211V254.7c0,1.015.262,1.278,1.275,1.278h9.556v1.5h1.688l.05-.123a.267.267,0,0,0,.032-.112c0-.619.008-1.238.008-1.856,0-.882-.3-1.181-1.181-1.181h-9.59v-7.366h3.059q3.275,0,6.548,0c.859,0,1.164-.3,1.165-1.15v-7.957h9.011v7.9c0,.94.28,1.211,1.247,1.211h10.308v7.366H140.353c-1.027,0-1.293.259-1.293,1.26v21.552h-9.027V261.856h-1.805v15.2h-.792c-.655,0-1.292,0-1.93,0-.8,0-1.112.312-1.116,1.1,0,.463,0,.927,0,1.4v.545h-.767c-.678,0-1.337,0-1.994,0-.766,0-1.094.322-1.1,1.067,0,.3,0,.594,0,.89,0,.535.007,1.088-.012,1.628a1.276,1.276,0,0,0,.546,1.211l.033.023h26.943l.037-.062c.049-.082.109-.164.169-.245a1.264,1.264,0,0,0,.308-.63c.051-.871.037-1.757.023-2.614l-.005-.345a.879.879,0,0,0-.95-.921c-.444-.009-.888-.008-1.335-.006l-1.571,0v-.523c0-.476,0-.927,0-1.378,0-.844-.307-1.145-1.167-1.146h-2.66V255.983h10.321c.929,0,1.227-.287,1.228-1.183q0-4.285,0-8.567C152.439,245.362,152.138,245.068,151.242,245.068Zm-28.876,38.061v-1.217h24.392v1.217Zm3.86-3.032v-1.231H142.88V280.1Z" transform="translate(0 0)" fill="#c3c8f3"/>
      <rect id="Rectangle_249" data-name="Rectangle 249" width="1.722" height="1.732" rx="0.125" transform="translate(128.287 258.81)" fill="#c3c8f3"/>
    </g>
  </g>
</svg>
