<svg xmlns="http://www.w3.org/2000/svg" width="90" height="90" viewBox="0 0 90 90">
  <g id="medicos-menores" transform="translate(-544 -1300)">
    <g id="Group_90" data-name="Group 90">
      <rect id="Rectangle_231" data-name="Rectangle 231" width="90" height="90" rx="45" transform="translate(544 1300)" fill="none" opacity="0"/>
    </g>
    <g id="Group_128" data-name="Group 128" transform="translate(175.441 1085.873)">
      <path id="Path_42" data-name="Path 42" d="M393.559,252.335c.108-.638.179-1.284.331-1.912a10.426,10.426,0,0,1,5.588-7.265,9.943,9.943,0,0,1,5.879-.9,11.944,11.944,0,0,1,8.38,5.231c.077.107.155.215.235.321a1.126,1.126,0,0,0,.1.1c.116-.159.231-.312.341-.468a11.956,11.956,0,0,1,5.148-4.289c3.646-1.525,7.22-1.442,10.53.881a10.444,10.444,0,0,1,4.22,6.761,12.38,12.38,0,0,1-1.4,8.534,32.165,32.165,0,0,1-5.724,7.328c-3.423,3.455-7.159,6.566-10.832,9.747-.544.47-1.086.942-1.636,1.406a.852.852,0,0,1-1.314.019c-4.219-3.667-8.552-7.209-12.5-11.177A36.134,36.134,0,0,1,396.194,261a14.575,14.575,0,0,1-2.574-6.687.512.512,0,0,0-.062-.142Zm20.5,23.942c1.066-.914,2.1-1.792,3.126-2.68a125.907,125.907,0,0,0,9.926-9.136,25.837,25.837,0,0,0,4.76-6.649,10.6,10.6,0,0,0,.789-7.13,8.792,8.792,0,0,0-2.985-4.961c-2.893-2.341-6.107-2.514-9.439-1.125a10.954,10.954,0,0,0-5.386,5.184.83.83,0,0,1-1.566.01,11.746,11.746,0,0,0-3.646-4.214,9.351,9.351,0,0,0-7.672-1.6,8.264,8.264,0,0,0-6.172,5.627,10.7,10.7,0,0,0,.929,9.159,27.667,27.667,0,0,0,4.021,5.387A102.527,102.527,0,0,0,409,271.913C410.672,273.361,412.347,274.8,414.055,276.277Z" fill="#c3c8f3"/>
      <path id="Path_43" data-name="Path 43" d="M410.691,257.363v-4.092c0-.917.228-1.143,1.152-1.143q2.1,0,4.2,0c.7,0,.99.284.992.983,0,1.4,0,2.8,0,4.251h.446c1.268,0,2.537,0,3.8,0,.7,0,.981.282.982.992q.006,2.181,0,4.36c0,.69-.3.988-.994.991-1.256.005-2.511,0-3.766,0h-.473v.455c0,1.268,0,2.536,0,3.8a.848.848,0,0,1-.971.973q-2.2.009-4.4,0a.848.848,0,0,1-.971-.974c-.005-1.4,0-2.8,0-4.259h-.434c-1.255,0-2.51,0-3.765,0-.75,0-1.034-.285-1.035-1.031q0-2.16,0-4.32c0-.71.28-.991.983-.992C407.839,257.36,409.237,257.363,410.691,257.363Zm1.587,9.963h3.172c0-1.43,0-2.83,0-4.229,0-.677.293-.97.962-.974.687,0,1.374,0,2.061,0h2.186v-3.173c-1.41,0-2.8,0-4.18,0-.744,0-1.028-.289-1.029-1.036q0-1.882,0-3.766v-.409h-3.172v.409q0,1.883,0,3.766c0,.747-.285,1.034-1.029,1.036-1.255,0-2.511,0-3.766,0h-.418v3.173h.446q1.844,0,3.686,0c.832,0,1.081.253,1.081,1.094C412.278,264.576,412.278,265.936,412.278,267.326Z" transform="translate(0.196 0.077)" fill="#c3c8f3"/>
      <path id="Path_44" data-name="Path 44" d="M430.992,253.108a10.724,10.724,0,0,1-1.569,5.441c-.637,1.077-1.381,2.091-2.1,3.118a.808.808,0,0,1-1.195.287.821.821,0,0,1-.071-1.228,20.537,20.537,0,0,0,2.426-3.8,7.934,7.934,0,0,0,.525-6.11c-.114-.336-.273-.657-.4-.989a.791.791,0,1,1,1.446-.625A8.952,8.952,0,0,1,430.992,253.108Z" transform="translate(0.392 0.043)" fill="#c3c8f3"/>
      <path id="Path_45" data-name="Path 45" d="M427.21,247.835a.8.8,0,0,1-.759-.807.777.777,0,1,1,1.553.038A.791.791,0,0,1,427.21,247.835Z" transform="translate(0.392)" fill="#c3c8f3"/>
    </g>
  </g>
</svg>
