<svg xmlns="http://www.w3.org/2000/svg" width="90" height="90" viewBox="0 0 90 90">
  <g id="orienta-pae" transform="translate(-937 -1888)">
    <g id="Group_99" data-name="Group 99" transform="translate(654 196)" opacity="0.003">
      <g id="Group_79" data-name="Group 79" transform="translate(0 196)">
        <rect id="Rectangle_233" data-name="Rectangle 233" width="90" height="90" rx="45" transform="translate(283 1496)" fill="none"/>
      </g>
    </g>
    <g id="Group_106" data-name="Group 106" transform="translate(724.138 1849.863)">
      <path id="Path_30" data-name="Path 30" d="M245.568,76.993a.731.731,0,0,0,.4.117h24.217a.743.743,0,0,0,.623-.342c2.406-3.76,2.508-5.845,2.511-5.932a.755.755,0,0,0-.207-.548.742.742,0,0,0-.534-.229H243.22a.739.739,0,0,0-.588.293A.757.757,0,0,0,242.5,71C243.739,75.7,245.385,76.875,245.568,76.993Zm26.106-5.434a16.032,16.032,0,0,1-1.9,4.051H246.238a9.855,9.855,0,0,1-2.033-4.051Z" transform="translate(0 -0.137)" fill="#c3c8f3"/>
      <path id="Path_31" data-name="Path 31" d="M280.558,111.217a40.392,40.392,0,0,0-45.391,0,.754.754,0,0,0-.268.838.746.746,0,0,0,.708.517h12.233a.75.75,0,0,0,0-1.5h-9.63a38.874,38.874,0,0,1,39.307,0H253.723a.75.75,0,0,0,0,1.5h26.4a.751.751,0,0,0,.44-1.355Z" transform="translate(0 -0.442)" fill="#c3c8f3"/>
      <path id="Path_32" data-name="Path 32" d="M245.985,68.312H269.74a1.49,1.49,0,0,0,1.481-1.5V65.46a1.49,1.49,0,0,0-1.481-1.5h-1.963a1.5,1.5,0,0,0,.407-.377,1.516,1.516,0,0,0,.236-1.321c-.813-2.81-4.065-8.125-10.558-8.125-6.522,0-9.629,5.439-10.359,8.315a1.514,1.514,0,0,0,.264,1.293,1.47,1.47,0,0,0,.2.215h-1.982a1.49,1.49,0,0,0-1.481,1.5v1.352A1.49,1.49,0,0,0,245.985,68.312Zm0-2.852H250.2V62.826h-1.265s1.827-7.189,8.925-7.189S267,62.684,267,62.684h-1.406l.07,2.776h4.077v1.352H245.985Z" transform="translate(0)" fill="#c3c8f3"/>
      <path id="Path_33" data-name="Path 33" d="M258.155,58.342c-6.591,0-5.709,7.118-5.709,7.118h11.389S264.746,58.342,258.155,58.342Zm-4.221,5.618A5.121,5.121,0,0,1,255.023,61a4.809,4.809,0,0,1,6.262.006,5.111,5.111,0,0,1,1.067,2.956Z" transform="translate(-0.172)" fill="#c3c8f3"/>
      <path id="Path_34" data-name="Path 34" d="M245.351,103.332a.757.757,0,0,0,.067.838.734.734,0,0,0,.794.247,33.518,33.518,0,0,1,13.7-1.639.74.74,0,0,0,.8-.686l.786-9.7c.5,3.155,1.06,6.987,1.32,9.891a.747.747,0,0,0,.647.677,21.656,21.656,0,0,1,5.957,1.423.737.737,0,0,0,.845-.155.759.759,0,0,0,.133-.858,41.051,41.051,0,0,1-3.519-23.785.755.755,0,0,0-.151-.626.736.736,0,0,0-.573-.277H249.575a.734.734,0,0,0-.568.271.754.754,0,0,0-.159.616,36.167,36.167,0,0,1,.542,8.013A39.182,39.182,0,0,1,245.351,103.332Zm5.518-15.689a37.792,37.792,0,0,0-.415-7.465h14.818a42.37,42.37,0,0,0,3.042,22.224,28.687,28.687,0,0,0-4.085-.857c-.595-6.006-2.249-15.181-2.267-15.276a.768.768,0,0,0-.765-.614.742.742,0,0,0-.7.687l-1.208,14.887A33.878,33.878,0,0,0,247.4,102.5,41.5,41.5,0,0,0,250.869,87.643Z" transform="translate(0 -0.442)" fill="#c3c8f3"/>
      <path id="Path_35" data-name="Path 35" d="M270.3,87.463a.749.749,0,0,0-.7.794,40.766,40.766,0,0,0,4.129,15.777.75.75,0,1,0,1.342-.668,39.315,39.315,0,0,1-3.974-15.2A.753.753,0,0,0,270.3,87.463Z" transform="translate(-0.342 -0.442)" fill="#c3c8f3"/>
      <path id="Path_36" data-name="Path 36" d="M251.1,111.064a.757.757,0,1,0,.757.758A.757.757,0,0,0,251.1,111.064Z" transform="translate(-0.118 -0.442)" fill="#c3c8f3"/>
      <path id="Path_37" data-name="Path 37" d="M270.345,86.124a.757.757,0,1,0-.757-.757A.757.757,0,0,0,270.345,86.124Z" transform="translate(-0.265 -0.237)" fill="#c3c8f3"/>
    </g>
  </g>
</svg>
