<svg xmlns="http://www.w3.org/2000/svg" width="90" height="90" viewBox="0 0 90 90">
  <g id="reconocimiento" transform="translate(-543 -1692)">
    <g id="Group_103" data-name="Group 103" transform="translate(-263)" opacity="0">
      <g id="Group_81" data-name="Group 81" transform="translate(0 196)">
        <rect id="Rectangle_235" data-name="Rectangle 235" width="90" height="90" rx="45" transform="translate(806 1496)" fill="none"/>
      </g>
    </g>
    <g id="Group_127" data-name="Group 127" transform="translate(238.432 1477.073)">
      <path id="Path_39" data-name="Path 39" d="M369.345,277.444c-1.96-3.391-4.033-6.957-6.522-11.223-.146-.25-.162-.362.026-.58,4.87-5.677,5.963-11.962,3.248-18.679-2.238-5.534-6.463-9.091-12.557-10.573-.617-.15-1.256-.243-1.874-.33-.288-.042-.576-.084-.862-.13l-.01,0-2.574,0c-.195.03-.391.058-.588.087-.414.061-.843.123-1.263.2a17.793,17.793,0,0,0-5.38,1.879.973.973,0,0,0-.538.716.766.766,0,0,0,.262.668.932.932,0,0,0,1.181.01,16.4,16.4,0,0,1,10.544-1.648,16.146,16.146,0,0,1,10.79,7.175A15.944,15.944,0,0,1,365.3,257.8a16.337,16.337,0,0,1-18.673,11.8,16.048,16.048,0,0,1-11.132-7.818,15.86,15.86,0,0,1-1.23-13.554,16.444,16.444,0,0,1,4.724-6.776,1.035,1.035,0,0,0,.4-.694.784.784,0,0,0-.22-.577.861.861,0,0,0-1.263.015,17.438,17.438,0,0,0-6.248,12.709,17.255,17.255,0,0,0,4.639,12.767c.171.19.183.286.059.489-.534.881-1.157,1.927-1.73,3a.971.971,0,0,0,.032.885,1.029,1.029,0,0,0,.838.324c.294-.033.547-.41.617-.525.424-.7.825-1.386,1.249-2.117l.368-.633a18.113,18.113,0,0,0,7.344,3.869l-5.868,10.089c-.035-.1-.063-.181-.089-.263l-.448-1.4q-.434-1.362-.872-2.725a.9.9,0,0,0-1.238-.721c-.4.084-.809.174-1.212.265l-.672.149-2.391.518-.264.057c.054-.108.1-.2.152-.285l.742-1.276q.71-1.218,1.414-2.44a.834.834,0,0,0-.868-1.294.84.84,0,0,0-.518.4c-1.068,1.814-2.2,3.749-3.3,5.7a.953.953,0,0,0,.088.893,1.137,1.137,0,0,0,.829.3h.006a2.516,2.516,0,0,0,.659-.119c.093-.026.186-.051.279-.072l4.863-1.054.022.068c.052.15.1.286.144.425l.516,1.614q.549,1.723,1.1,3.443a.971.971,0,0,0,.646.666.757.757,0,0,0,.193.026.8.8,0,0,0,.529-.211,1.755,1.755,0,0,0,.323-.444l.318-.546q3.236-5.557,6.462-11.122a.406.406,0,0,1,.5-.254,16.263,16.263,0,0,0,4.868,0,.436.436,0,0,1,.543.257c1.059,1.846,2.148,3.714,3.2,5.522l.728,1.251a1.745,1.745,0,0,0,.266.382.773.773,0,0,0,1.015.121.744.744,0,0,0,.345-.95,3.11,3.11,0,0,0-.24-.475l-3.592-6.176c-.055-.1-.108-.192-.165-.3l-.015-.027a18.144,18.144,0,0,0,7.334-3.875l5.7,9.805-1.3-.28c-1.079-.234-2.123-.46-3.169-.682-.821-.176-1.086-.021-1.346.79l-1.382,4.294c-.059-.1-.111-.181-.162-.264-.325-.526-.782-.681-1.223-.416a.836.836,0,0,0-.223,1.225c.145.257.294.51.443.764.19.323.38.646.561.973a.891.891,0,0,0,.941.559c.464-.059.631-.391.742-.74q.788-2.484,1.592-4.966l.086-.267a1.888,1.888,0,0,1,.087-.212l.01-.023.169.035.635.134,1.543.336c1.124.246,2.248.491,3.374.729a.991.991,0,0,0,.8-.121.68.68,0,0,0,.272-.511A1.506,1.506,0,0,0,369.345,277.444Z" transform="translate(0)" fill="#c3c8f3"/>
      <path id="Path_40" data-name="Path 40" d="M361.351,257a.783.783,0,0,0,.612-.1,1.078,1.078,0,0,0,.411-.734,13.225,13.225,0,0,0,.008-4.769,13.116,13.116,0,0,0-25.993,2.377v.016c.034.274.061.549.088.824a16.708,16.708,0,0,0,.241,1.77,12.913,12.913,0,0,0,8.631,9.668,13.275,13.275,0,0,0,4.209.688,13.142,13.142,0,0,0,8.584-3.21,12.676,12.676,0,0,0,2.971-3.756.827.827,0,1,0-1.44-.811c-.068.106-.13.217-.191.328-.03.054-.06.108-.091.162a11.442,11.442,0,0,1-11.795,5.477,11.32,11.32,0,0,1-9.36-12.82,11.179,11.179,0,0,1,6.214-8.483,11.377,11.377,0,0,1,16.284,12.243C360.629,256.473,360.865,256.907,361.351,257Z" transform="translate(0.034 -0.025)" fill="#c3c8f3"/>
      <path id="Path_41" data-name="Path 41" d="M357.123,252.11a2.123,2.123,0,0,0,.306-.408c.025-.041.047-.078.067-.105l.022-.031v-.039a.908.908,0,0,0-.877-.986l-.343-.05c-1.215-.177-2.471-.359-3.71-.517a.5.5,0,0,1-.462-.33c-.346-.718-.7-1.43-1.053-2.145-.239-.484-.48-.969-.717-1.455a.944.944,0,0,0-.876-.655.919.919,0,0,0-.828.645q-.359.73-.721,1.458c-.353.712-.705,1.425-1.051,2.142a.51.51,0,0,1-.455.341c-.887.112-1.774.239-2.66.365-.464.066-.929.132-1.393.2a.91.91,0,0,0-.848.627.875.875,0,0,0,.341.943q.633.606,1.264,1.217.835.807,1.673,1.609a.461.461,0,0,1,.176.492c-.14.735-.265,1.473-.392,2.212-.1.593-.2,1.187-.311,1.778a.9.9,0,0,0,.327,1.035.775.775,0,0,0,.441.14,1.346,1.346,0,0,0,.614-.191c.47-.25.943-.5,1.414-.741.7-.362,1.416-.736,2.116-1.118a.591.591,0,0,1,.656.015c1.217.656,2.411,1.292,3.625,1.886a1.06,1.06,0,0,0,.942-.039,1.045,1.045,0,0,0,.313-.873c-.21-1.446-.469-2.88-.7-4.09a.462.462,0,0,1,.162-.494C355.185,254,356.172,253.045,357.123,252.11Zm-4.8,3.275c.137.7.258,1.4.388,2.149.04.236.082.476.125.721l-.2-.1-.645-.335-.505-.264c-.468-.243-.937-.486-1.4-.741a1.143,1.143,0,0,0-1.184.009c-.687.374-1.374.731-2.1,1.11l-.635.331c.04-.232.079-.46.118-.685.127-.745.246-1.447.388-2.153a1.41,1.41,0,0,0-.451-1.444c-.522-.5-1.018-1.037-1.5-1.558-.148-.16-.294-.32-.442-.478l.594-.087c.749-.11,1.523-.224,2.3-.323a1.121,1.121,0,0,0,.956-.689c.3-.631.615-1.265.923-1.88l.313-.626c.039-.079.083-.155.136-.248.111.222.221.439.329.654.337.665.654,1.294.949,1.941a1.331,1.331,0,0,0,1.19.868,22.421,22.421,0,0,1,2.906.5,3.366,3.366,0,0,0-.368.288c-.226.212-.448.43-.669.647-.352.344-.716.7-1.091,1.029A1.3,1.3,0,0,0,352.321,255.385Z" transform="translate(0.059 -0.05)" fill="#c3c8f3"/>
    </g>
  </g>
</svg>
