<svg xmlns="http://www.w3.org/2000/svg" width="90" height="90" viewBox="0 0 90 90">
  <g id="Group_206" data-name="Group 206" transform="translate(-544 -1888)">
    <g id="Group_136" data-name="Group 136" opacity="0">
      <g id="Group_105" data-name="Group 105" transform="translate(-262 196)">
        <g id="Group_81" data-name="Group 81" transform="translate(0 196)">
          <rect id="Rectangle_235" data-name="Rectangle 235" width="90" height="90" rx="45" transform="translate(806 1496)" fill="#c3c8f3"/>
        </g>
      </g>
    </g>
    <g id="Group_205" data-name="Group 205" transform="translate(651 1955.704)">
      <path id="Path_95" data-name="Path 95" d="M-92,37.43a3.774,3.774,0,0,1,.985-.795,1.034,1.034,0,0,1,1.278.728,1.143,1.143,0,0,1-.518,1.4,1.133,1.133,0,0,1-1.466-.272c-.1-.114-.186-.238-.278-.357Z" transform="translate(0 -69.273)" fill="#c3c8f3"/>
      <path id="Path_96" data-name="Path 96" d="M-51.1-3.228c-.156.314-.3.613-.451.906A4.513,4.513,0,0,1-56.064.1,4.464,4.464,0,0,1-60.04-3.417c-.912-4.192-1.792-8.391-2.686-12.588a.805.805,0,0,0-.263-.481c-.191.889-.385,1.777-.574,2.667-.715,3.377-1.419,6.756-2.148,10.13A4.517,4.517,0,0,1-69.826.11,4.58,4.58,0,0,1-74.457-2.7c-2.412-4.92-4.8-9.85-7.273-14.741-.93-1.841-2.094-3.563-3.07-5.383a22.291,22.291,0,0,1-1.165-2.868,1.15,1.15,0,0,1,.679-1.62,1.147,1.147,0,0,1,1.506.826,36.216,36.216,0,0,0,3.348,6.676c1.477,2.52,2.786,5.143,4.093,7.758,1.4,2.808,2.714,5.662,4.078,8.49a2.191,2.191,0,0,0,2.987,1.125,2.254,2.254,0,0,0,1.265-1.719q1.328-6.3,2.675-12.59a2.41,2.41,0,0,1,2.428-2.1,2.387,2.387,0,0,1,2.4,2.055Q-59.151-10.5-57.821-4.2A2.25,2.25,0,0,0-55.81-2.224a2.392,2.392,0,0,0,2.331-1.433,1.693,1.693,0,0,0-.3-2.252,14.6,14.6,0,0,1-2.35-15.245c2.159-5.438,6.316-8.58,12.114-9.479.9-.14,1.827-.118,2.8-.174a9.555,9.555,0,0,0-.328-3.718c-1.124-3.788-3.261-6.724-7.107-8.128a9.552,9.552,0,0,0-7.191.352,33.271,33.271,0,0,0-3.2,1.687c-.862.481-1.7,1.009-2.543,1.513a4.789,4.789,0,0,0,3.626.188c.259-.083.5-.211.76-.3a1.155,1.155,0,0,1,1.521.594,1.136,1.136,0,0,1-.572,1.529,7.166,7.166,0,0,1-5.736.362,7.26,7.26,0,0,1-3.856-3.08,1.208,1.208,0,0,0-.284-.365A14.887,14.887,0,0,0-73.06-43.1a9.5,9.5,0,0,0-8.706,3.711,22.9,22.9,0,0,0-1.864,3.028,1.216,1.216,0,0,1-1.283.715,1.1,1.1,0,0,1-.96-1.03,1.4,1.4,0,0,1,.124-.677c1.955-4.279,5.065-7.173,9.81-8.018a12.756,12.756,0,0,1,8.252,1.529A33.6,33.6,0,0,1-64.782-42.1a2.9,2.9,0,0,0,3.734,0,18.236,18.236,0,0,1,6.515-3.088c5.3-1.122,9.533.68,12.758,4.905a13.9,13.9,0,0,1,2.931,9.3c-.021.464.126.62.565.737A15.22,15.22,0,0,1-27.009-14.873,15.2,15.2,0,0,1-39.161-.6a14.667,14.667,0,0,1-11.345-2.27c-.163-.108-.324-.218-.486-.326A.587.587,0,0,0-51.1-3.228Zm8.964.575a12.838,12.838,0,0,0,12.8-12.84,12.865,12.865,0,0,0-12.721-12.93A12.863,12.863,0,0,0-54.89-15.54,12.838,12.838,0,0,0-42.14-2.654Z" transform="translate(-5)" fill="#c3c8f3"/>
      <path id="Path_97" data-name="Path 97" d="M146.513,97.732c0-.6-.007-1.106,0-1.611A2.556,2.556,0,0,1,149.1,93.51q1.405-.02,2.811,0a2.555,2.555,0,0,1,2.582,2.553c.013.525,0,1.051,0,1.669.278,0,.523.019.766,0,2.495-.22,3.643,1.225,3.451,3.476-.054.64,0,1.288-.011,1.932a2.582,2.582,0,0,1-2.588,2.62c-.521.018-1.044,0-1.616,0,0,.579.006,1.083,0,1.587a2.573,2.573,0,0,1-2.557,2.65c-.955.039-1.914.039-2.869,0a2.57,2.57,0,0,1-2.553-2.652c-.007-.5,0-1.007,0-1.583-.536,0-1.019.007-1.5,0a2.6,2.6,0,0,1-2.7-2.741c-.006-.859-.008-1.718,0-2.577a2.593,2.593,0,0,1,2.68-2.708C145.471,97.726,145.955,97.732,146.513,97.732Zm5.637-.118c0-.429-.014-.859,0-1.287.015-.354-.123-.488-.478-.481-.78.016-1.561.02-2.341,0-.406-.011-.494.176-.485.533.017.721.007,1.443,0,2.165,0,1.121-.4,1.528-1.506,1.531-.722,0-1.444.017-2.165-.006-.411-.013-.553.143-.542.547.021.76.019,1.522,0,2.282-.009.377.132.529.51.522.78-.014,1.561-.017,2.341,0a1.212,1.212,0,0,1,1.359,1.382c.007.78.016,1.561,0,2.341-.01.379.131.528.508.522q1.141-.021,2.282,0c.37.006.526-.129.516-.515-.021-.78-.011-1.56,0-2.341a1.212,1.212,0,0,1,1.352-1.388c.78-.019,1.561-.015,2.341,0,.371.006.528-.131.518-.515-.019-.76-.026-1.522,0-2.282.017-.456-.183-.566-.6-.554-.76.023-1.521.014-2.282,0a1.207,1.207,0,0,1-1.335-1.347C152.145,98.356,152.15,97.985,152.15,97.615Z" transform="translate(-197.619 -117.278)" fill="#c3c8f3"/>
    </g>
  </g>
</svg>
