<svg xmlns="http://www.w3.org/2000/svg" width="90" height="90" viewBox="0 0 90 90">
  <g id="Group_208" data-name="Group 208" transform="translate(-544 -1888)">
    <g id="Group_136" data-name="Group 136" opacity="0.004">
      <g id="Group_105" data-name="Group 105" transform="translate(-262 196)">
        <g id="Group_81" data-name="Group 81" transform="translate(0 196)">
          <rect id="Rectangle_235" data-name="Rectangle 235" width="90" height="90" rx="45" transform="translate(806 1496)" fill="#c3c8f3"/>
        </g>
      </g>
    </g>
    <g id="Group_207" data-name="Group 207" transform="translate(662.277 1929.738)">
      <path id="Path_98" data-name="Path 98" d="M-42.277,13.194a10.569,10.569,0,0,1-.99,1.553,2.683,2.683,0,0,1-2.119.7c-1.372,0-2.745.014-4.117-.008a.614.614,0,0,0-.725.51,6.339,6.339,0,0,1-6.1,4.623A6.341,6.341,0,0,1-62.4,15.908a.553.553,0,0,0-.631-.466q-9.6.015-19.193,0c-.379,0-.515.146-.618.483a6.317,6.317,0,0,1-5.906,4.642,6.409,6.409,0,0,1-6.038-3.882c-.033-.074-.065-.148-.093-.224-.379-1.012-.378-1.012-1.486-1.012-1.574,0-3.148,0-4.722,0a2.847,2.847,0,0,1-3.185-3.17q0-11.6,0-23.193a2.839,2.839,0,0,1,3.154-3.137q5.812,0,11.624,0a2.482,2.482,0,0,1,.772.1.861.861,0,0,1,.6.943.893.893,0,0,1-.777.876,3.528,3.528,0,0,1-.664.03q-5.721,0-11.443,0c-1.088,0-1.322.231-1.322,1.308q0,8.084,0,16.168v.708c1.2-.011,2.378.042,3.087,1.1a3.734,3.734,0,0,1,.609,1.724,2.27,2.27,0,0,1-1.178,2.243,14.3,14.3,0,0,1-2.509.782,5.438,5.438,0,0,0,.006.743.791.791,0,0,0,.838.783c1.958.009,3.915,0,5.873.014.4,0,.37-.264.422-.521a6.36,6.36,0,0,1,6.036-5.1,6.368,6.368,0,0,1,6.384,4.818c.062.251.111.5.177.8.368,0,.708,0,1.048,0,.156,0,.312-.02.5-.032V4.95H-97.257c-1.224,0-1.5-.27-1.5-1.492q0-5.087,0-10.173c0-1.218.275-1.491,1.5-1.491h16.145c.4-1.311.472-1.36,1.821-1.36q6.872,0,13.744,0c1,0,1.279.259,1.4,1.307h19.631a5.153,5.153,0,0,0-4.217-3.748,12.036,12.036,0,0,0-1.448-.087q-17.5-.007-34.995,0a4.921,4.921,0,0,1-.785-.027.883.883,0,0,1-.8-.853.867.867,0,0,1,.629-.982,2.6,2.6,0,0,1,.774-.088q17.77-.006,35.54,0a7.283,7.283,0,0,1,7.445,6.194,1.121,1.121,0,0,0,.094.22ZM-64.14,4.95v8.5h1.455c1.053-3.671,3.158-5.545,6.23-5.594a6.237,6.237,0,0,1,3.856,1.2,6.446,6.446,0,0,1,2.626,4.41c1.689,0,3.34.01,4.991-.007a.745.745,0,0,0,.736-.748,8.434,8.434,0,0,0,.008-.991c-.593,0-1.115.007-1.636,0a2.851,2.851,0,0,1-2.521-1.3,2.759,2.759,0,0,1,2.064-4.257c.674-.065,1.359-.01,2.061-.01V4.95c-1.96,0-3.876.005-5.791,0-.77,0-1.2-.366-1.2-.98S-50.852,3-50.067,3c1.715-.007,3.431,0,5.146,0h.648V-6.18H-55.3V3a9.2,9.2,0,0,1,1.65.025,1.5,1.5,0,0,1,.941.588c.368.638-.179,1.321-1.029,1.331-1.513.018-3.027.006-4.54.006ZM-66.153,5H-78.994v8.173h12.841Zm2.017-11.2V2.957h6.808V-6.2ZM-89.958,2.968V-6.195h-6.785V2.968ZM-87.916-6.2V2.96h6.8V-6.2Zm21.755-1.362H-71.54V2.962h5.379Zm-7.41-.045c-1.647,0-3.237.02-4.825-.012-.509-.01-.645.15-.642.647.02,3.108.01,6.217.012,9.325,0,.195.022.39.035.6h5.421Zm-10.97,21.744A4.436,4.436,0,0,0-89,9.806a4.464,4.464,0,0,0-4.354,4.447,4.478,4.478,0,0,0,4.441,4.362A4.448,4.448,0,0,0-84.541,14.134Zm23.843-.026a4.416,4.416,0,0,0,4.331,4.507,4.447,4.447,0,0,0,4.453-4.275,4.437,4.437,0,0,0-4.311-4.533A4.412,4.412,0,0,0-60.7,14.108ZM-44.259,8.1c-.666,0-1.3-.033-1.934.011a.663.663,0,0,0-.657.778c.055.293.348.724.588.763a12.556,12.556,0,0,0,2,.036ZM-102.3,9.74c.611-.043,1.245.194,1.582-.426a1.011,1.011,0,0,0-.043-.878c-.381-.558-.981-.341-1.539-.313Z" transform="translate(0 0)" fill="#c3c8f3"/>
      <path id="Path_100" data-name="Path 100" d="M-16.153,156.521a2.861,2.861,0,0,1-2.817,2.823,2.869,2.869,0,0,1-2.839-2.8,2.867,2.867,0,0,1,2.852-2.85A2.855,2.855,0,0,1-16.153,156.521Zm-1.96-.032a.907.907,0,0,0-.871-.84.868.868,0,0,0-.836.918.829.829,0,0,0,.883.794A.876.876,0,0,0-18.114,156.49Z" transform="translate(-69.963 -142.307)" fill="#c3c8f3"/>
      <path id="Path_101" data-name="Path 101" d="M193.5,156.539a2.813,2.813,0,1,1,2.82,2.806A2.826,2.826,0,0,1,193.5,156.539Zm2.755.822a.828.828,0,0,0,.9-.774.863.863,0,0,0-.818-.934.885.885,0,0,0-.884.82A.852.852,0,0,0,196.257,157.361Z" transform="translate(-252.626 -142.308)" fill="#c3c8f3"/>
      <path id="Path_102" data-name="Path 102" d="M-6.994,167.461a.876.876,0,0,1-.824.872.829.829,0,0,1-.883-.794.868.868,0,0,1,.836-.918A.907.907,0,0,1-6.994,167.461Z" transform="translate(-81.083 -153.278)" fill="#c3c8f3"/>
      <path id="Path_103" data-name="Path 103" d="M207.2,168.339a.852.852,0,0,1-.8-.888.885.885,0,0,1,.884-.82.863.863,0,0,1,.818.934A.828.828,0,0,1,207.2,168.339Z" transform="translate(-263.564 -153.286)" fill="#c3c8f3"/>
    </g>
  </g>
</svg>
