<svg xmlns="http://www.w3.org/2000/svg" width="90" height="90" viewBox="0 0 90 90">
  <g id="vale-desp" transform="translate(-1067 -1692)">
    <g id="Group_82" data-name="Group 82" transform="translate(0 196)" opacity="0">
      <rect id="Rectangle_236" data-name="Rectangle 236" width="90" height="90" rx="45" transform="translate(1067 1496)" fill="none"/>
    </g>
    <g id="_004-shopping-cart" data-name="004-shopping-cart" transform="translate(1087 1671.055)">
      <path id="Path_28" data-name="Path 28" d="M49.792,50.523a.977.977,0,0,0-.768-.373H8.22L7.132,45.69a.976.976,0,0,0-.949-.745H.977a.977.977,0,0,0,0,1.953h4.44L11.73,72.772l-1.2,4.912a4.282,4.282,0,1,0,4.373,1.88h8.23a.977.977,0,1,0,0-1.953H12.559l.942-3.863H43.741A.977.977,0,0,0,44.69,73l5.282-21.646a.976.976,0,0,0-.181-.835ZM36.029,64.39H29.215V59.508h7.41Zm2.563-4.883h7.381L44.781,64.39H38Zm-11.33,0V64.39H20.448l-.6-4.883Zm-7.648-1.953L18.949,52.1h8.313v5.452ZM18.48,64.39H11.7L10.5,59.508h7.381Zm-6.309,1.953h6.547l.665,5.452H13.5Zm8.514,0h6.576V71.8h-5.91Zm8.529,0H35.79L35.125,71.8h-5.91Zm0-8.789V52.1h8.313l-.665,5.452ZM16.981,52.1l.665,5.452H10.027L8.7,52.1Zm-3.34,29.786a2.325,2.325,0,1,1-2.325-2.325A2.327,2.327,0,0,1,13.641,81.889ZM42.974,71.8H37.093l.665-5.452H44.3ZM46.45,57.554H38.83L39.5,52.1H47.78Z" fill="#c3c8f3"/>
      <circle id="Ellipse_1" data-name="Ellipse 1" cx="0.977" cy="0.977" r="0.977" transform="translate(26.552 77.611)" fill="#c3c8f3"/>
      <path id="Path_29" data-name="Path 29" d="M329.689,379.444H317.871a.977.977,0,0,0,0,1.953h8.23a4.276,4.276,0,1,0,3.588-1.953Zm0,6.6a2.325,2.325,0,1,1,2.325-2.325A2.327,2.327,0,0,1,329.689,386.047Z" transform="translate(-285.947 -301.833)" fill="#c3c8f3"/>
    </g>
  </g>
</svg>
