<svg xmlns="http://www.w3.org/2000/svg" width="65" height="17.486" viewBox="0 0 65 17.486"><defs><style>.a{fill:#fff;}</style></defs><g transform="translate(-56.125 -29.044)"><rect class="a" width="1.107" height="10.023" transform="translate(56.125 36.345)"/><path class="a" d="M141.163,72.639h2.229v9.049H144.5V72.639h2.229v-.974h-5.565Z" transform="translate(-71.209 -35.32)"/><path class="a" d="M199.4,78.691c0,1.284-.325,2.2-1.653,2.2s-1.639-1.092-1.639-2.2V71.665H194.99V78.78c0,1.83.694,3.07,2.731,3.07,2.111,0,2.775-1.314,2.775-3.144V71.665H199.4Z" transform="translate(-116.283 -35.32)"/><path class="a" d="M280.763,72.639h2.229v9.049H284.1V72.639h2.229v-.974h-5.565Z" transform="translate(-188.107 -35.32)"/><rect class="a" width="1.107" height="10.023" transform="translate(101.815 36.345)"/><path class="a" d="M370.094,76.418c-.339,1.417-.826,3.247-.945,4.1h-.029c-.133-.959-.516-2.7-.841-4.1l-1.107-4.753h-1.181l2.48,10.023H369.8l2.583-10.023h-1.137Z" transform="translate(-259.105 -35.32)"/><path class="a" d="M431.994,72.639v-.974h-4.672V81.688h4.672v-.974h-3.58V76.875h3.335V75.9h-3.335V72.639Z" transform="translate(-310.869 -35.32)"/><rect class="a" width="1.107" height="10.023" transform="translate(88.068 36.345)"/><path class="a" d="M91.933,75.458c0,1.638.015,3.144.089,4.487h-.015c-.019-.062-.048-.137-.091-.238-.932-2.445-3.373-8.072-3.373-8.072H87.185V81.658h1.033V77.746c0-1.8-.015-3.439-.088-4.694h.013l.012.032c.02.063.051.14.1.249.668,1.692,3.415,8.325,3.415,8.325h1.3V71.635H91.933Z" transform="translate(-26.215 -35.295)"/><path class="a" d="M244.821,29.044a2.192,2.192,0,1,0,2.191,2.192A2.194,2.194,0,0,0,244.821,29.044Zm0,3.326a1.135,1.135,0,1,1,1.135-1.134A1.136,1.136,0,0,1,244.821,32.37Z" transform="translate(-156.199 0)"/></g></svg>