<svg xmlns="http://www.w3.org/2000/svg" xmlns:xlink="http://www.w3.org/1999/xlink" width="350" height="260" viewBox="0 0 350 260">
  <defs>
    <clipPath id="clip-path">
      <rect id="Rectangle_290" data-name="Rectangle 290" width="350" height="260" transform="translate(751 1763)" fill="#fff"/>
    </clipPath>
  </defs>
  <g id="Mask_Group_3" data-name="Mask Group 3" transform="translate(-751 -1763)" clip-path="url(#clip-path)">
    <g id="Group_194" data-name="Group 194" transform="translate(-6089.578 -5564.451)">
      <g id="Group_195" data-name="Group 195">
        <path id="Path_87" data-name="Path 87" d="M7099.575,7362.661a1.993,1.993,0,0,1-1.564-.753,234.411,234.411,0,0,0-19.768-21.857,9.2,9.2,0,0,0-10.3-1.737c-3.45,1.635-7.188,3.438-11.11,5.358a2,2,0,1,1-1.759-3.592c3.937-1.929,7.691-3.738,11.156-5.381a13.219,13.219,0,0,1,14.8,2.484,238.37,238.37,0,0,1,20.107,22.231,2,2,0,0,1-1.563,3.247Z" fill="#c3c8f3"/>
      </g>
      <g id="Group_196" data-name="Group 196">
        <path id="Path_88" data-name="Path 88" d="M7147.674,7555.332A268.74,268.74,0,0,0,7122.065,7494q7.295-4.622,14.827-9.465a12.292,12.292,0,0,0,5.238-13.605c-5.5-20.286-22.908-71.938-65.5-113.359a12.408,12.408,0,0,0-13.915-2.329,1397.284,1397.284,0,0,0-126.968,69.47,2,2,0,1,0,2.1,3.4,1393.175,1393.175,0,0,1,126.59-69.264,8.391,8.391,0,0,1,9.4,1.583c41.892,40.736,59.018,91.575,64.436,111.541a8.307,8.307,0,0,1-3.54,9.195c-94.739,60.939-162.569,95.6-181.1,104.763a8.4,8.4,0,0,1-9.819-1.824c-48.082-51.772-61.5-95.056-65.035-111.265a8.324,8.324,0,0,1,3.446-8.689c11.485-7.857,23.458-15.764,35.585-23.5a2,2,0,0,0-2.152-3.373c-12.162,7.759-24.171,15.689-35.692,23.571a12.305,12.305,0,0,0-5.094,12.845c2.322,10.642,8.827,32.732,26.168,61.12-5.24,3.473-10.439,6.956-15.533,10.441a12.311,12.311,0,0,0-5.093,12.845c3.607,16.528,17.259,60.637,66.01,113.129a12.4,12.4,0,0,0,9.1,3.949,12.261,12.261,0,0,0,5.424-1.257c18.567-9.186,86.527-43.9,181.492-104.987A12.293,12.293,0,0,0,7147.674,7555.332Zm-37.817,11.731q.2.341.405.676c-62.917,39.609-110.533,65.487-134.44,77.932q-.261-.5-.544-.989a25.846,25.846,0,0,0-34.675-9.753c-14.416-17.58-25.237-35.513-32.2-53.356.145-.079.288-.16.429-.241a25.694,25.694,0,0,0,12.051-15.707c.154-.575.281-1.153.4-1.731q8.2,10.469,18.337,21.553a13.14,13.14,0,1,0,21.606,1.666c-.077-.132-.162-.254-.243-.381,5.743-2.892,13.014-6.624,21.715-11.227,10.6,17.305,27.165,27.708,41.981,27.707a27.778,27.778,0,0,0,14.035-3.646c8.562-4.943,13.889-14.214,15-26.1,1-10.769-1.584-22.54-7.293-33.447q10.284-5.987,21.475-12.666a13.044,13.044,0,0,0,7.106,4.812,13.2,13.2,0,0,0,3.424.454,13.136,13.136,0,0,0,11.828-18.793q7.818-4.79,15.99-9.881a202.959,202.959,0,0,1,13.051,27.805A25.9,25.9,0,0,0,7109.857,7567.063ZM7022.019,7554a6.6,6.6,0,0,1,4.669.56,7.5,7.5,0,0,1,3.9,5.311,12.539,12.539,0,0,1-2.47,9.92,16.461,16.461,0,0,1-2.806,2.678l-8.858-15.342Q7019.186,7555.592,7022.019,7554Zm-.114,20.576a25.9,25.9,0,0,1-10.919,2.634,2,2,0,0,0,.036,4h.037a30.569,30.569,0,0,0,12.856-3.151l2.5,4.328a2,2,0,1,0,3.464-2l-2.549-4.416a20.74,20.74,0,0,0,3.889-3.659,16.508,16.508,0,0,0,3.281-13.255,11.476,11.476,0,0,0-5.969-8.046c-.226-.118-.449-.216-.673-.314q7.268-4.129,15.1-8.665c5.3,10.183,7.7,21.11,6.771,31.065-.985,10.561-5.607,18.733-13.015,23.009-15.124,8.732-37.425-1.346-50.472-22.478,7.868-4.191,16.8-9.035,26.715-14.552Zm64.924-58.654a9.139,9.139,0,0,1-15.475,9.363Q7078.9,7520.755,7086.829,7515.917Zm-136.851,74.858a12.26,12.26,0,0,0,5.424-1.257c.627-.31,1.29-.639,1.975-.981.132.188.267.373.384.576A9.15,9.15,0,1,1,6941,7591.32a9.064,9.064,0,0,1,1.494-3.054A12.463,12.463,0,0,0,6949.978,7590.775Zm190.294-25.2c-94.789,60.972-162.582,95.6-181.1,104.764a8.4,8.4,0,0,1-9.819-1.823c-48.081-51.773-61.5-95.057-65.035-111.265a8.328,8.328,0,0,1,3.445-8.691c5.047-3.452,10.19-6.906,15.38-10.348,4.238,6.721,9.074,13.768,14.6,21.087a21.719,21.719,0,0,1-10.909,18.571c-.563.325-1.148.627-1.786.924a2,2,0,0,0-1.027,2.518c7.251,19.255,18.888,38.6,34.587,57.488a2,2,0,0,0,2.609.411c.251-.159.5-.317.763-.468a21.834,21.834,0,0,1,31.074,10.438,2,2,0,0,0,1.162,1.106,2.033,2.033,0,0,0,.681.119,2,2,0,0,0,.92-.224c23.512-12.182,72.746-38.8,138.324-80.158a2,2,0,0,0,.542-2.879,21.873,21.873,0,0,1,6.621-31.939l.02-.012c.441-.255.886-.483,1.337-.705a2,2,0,0,0,.994-2.487,206.77,206.77,0,0,0-14.019-30.179q4.474-2.8,9.048-5.686a264.667,264.667,0,0,1,25.127,60.244A8.306,8.306,0,0,1,7140.272,7565.573Z" fill="#c3c8f3"/>
        <path id="Path_89" data-name="Path 89" d="M6937.717,7497.894a13.151,13.151,0,1,0,17.963,4.815A13.167,13.167,0,0,0,6937.717,7497.894Zm11.15,19.313a9.15,9.15,0,1,1,3.349-12.5A9.09,9.09,0,0,1,6948.867,7517.207Z" fill="#c3c8f3"/>
        <path id="Path_90" data-name="Path 90" d="M7066.284,7423.667a13.15,13.15,0,1,0,17.963,4.813A13.164,13.164,0,0,0,7066.284,7423.667Zm11.15,19.312a9.148,9.148,0,1,1,3.349-12.5A9.16,9.16,0,0,1,7077.434,7442.979Z" fill="#c3c8f3"/>
        <path id="Path_91" data-name="Path 91" d="M6982.471,7427.347c-17.438,10.068-20.254,37.956-6.276,62.166,6.709,11.621,16.252,20.707,26.871,25.584a38.406,38.406,0,0,0,15.976,3.755,27.96,27.96,0,0,0,14.128-3.691c17.438-10.069,20.254-37.956,6.276-62.166S6999.91,7417.279,6982.471,7427.347Zm48.7,84.349c-7.407,4.276-16.795,4.193-26.435-.233-9.872-4.535-18.777-13.04-25.076-23.95-12.875-22.3-10.716-47.737,4.812-56.7s38.636,1.885,51.511,24.184S7046.7,7502.731,7031.17,7511.7Z" fill="#c3c8f3"/>
        <path id="Path_92" data-name="Path 92" d="M7115.783,7450.786c.441-.255.887-.483,1.338-.705a2,2,0,0,0,.994-2.487c-5.565-15.074-15.883-37.406-33.43-58.2a2,2,0,0,0-2.655-.362c-.529.361-.972.642-1.394.885a21.867,21.867,0,0,1-29.871-8,22.237,22.237,0,0,1-1.031-2.016,2,2,0,0,0-2.723-.969,1384.3,1384.3,0,0,0-138.379,79.986,2,2,0,0,0-.525,2.838,21.869,21.869,0,0,1-6.815,31.711c-.532.306-1.118.61-1.791.925a2,2,0,0,0-1.022,2.516c7.253,19.257,18.89,38.6,34.589,57.486a2,2,0,0,0,2.608.412c.25-.159.5-.316.764-.468a21.849,21.849,0,0,1,29.827,7.934,22.27,22.27,0,0,1,1.244,2.5,2,2,0,0,0,2.764,1c23.5-12.171,72.707-38.77,138.324-80.156a2,2,0,0,0,.542-2.878,22.241,22.241,0,0,1-1.363-2.083h0a21.87,21.87,0,0,1,8.005-29.872Zm-11.47,31.872c.132.228.267.454.406.679-62.954,39.631-110.55,65.5-134.44,77.93q-.265-.507-.552-1a25.838,25.838,0,0,0-34.666-9.741c-14.416-17.577-25.237-35.51-32.2-53.353.146-.08.288-.161.428-.241a25.866,25.866,0,0,0,9.468-35.334q-.126-.219-.257-.436a1380.077,1380.077,0,0,1,134.513-77.751c.093.17.188.34.285.507a25.9,25.9,0,0,0,35.333,9.469l.115-.067a193.712,193.712,0,0,1,31,54.023A25.9,25.9,0,0,0,7104.313,7482.658Z" fill="#c3c8f3"/>
        <path id="Path_93" data-name="Path 93" d="M7022.987,7466.6c-5.113-2.657-9.534-.438-13.435,1.519-.341.171-.676.338-1.008.5l-8.423-14.589a22.383,22.383,0,0,1,7.17-1.753,2,2,0,0,0-.19-4,27.68,27.68,0,0,0-8.989,2.268l-3.07-5.317a2,2,0,0,0-3.464,2l2.964,5.135a18.044,18.044,0,0,0-6.292,5.986,10.3,10.3,0,0,0-.343,10.176c3.39,6.944,12.939,7.195,18.944,5.156l9.513,16.479a25.915,25.915,0,0,1-10.92,2.634,2,2,0,0,0,.035,4h.036a30.56,30.56,0,0,0,12.86-3.151l2.5,4.323a2,2,0,1,0,3.463-2l-2.546-4.411a20.8,20.8,0,0,0,3.886-3.658,16.512,16.512,0,0,0,3.281-13.255A11.485,11.485,0,0,0,7022.987,7466.6Zm-31.485.176a6.305,6.305,0,0,1,.189-6.383,14.308,14.308,0,0,1,4.857-4.55l8.255,14.3C7000.309,7471.416,6993.668,7471.219,6991.5,7466.78Zm31.068,18.606a16.437,16.437,0,0,1-2.8,2.676l-9.218-15.966.8-.4c3.486-1.749,6.5-3.262,9.8-1.544a7.507,7.507,0,0,1,3.9,5.312A12.539,12.539,0,0,1,7022.57,7485.386Z" fill="#c3c8f3"/>
        <path id="Path_94" data-name="Path 94" d="M6925.854,7435.355a1.988,1.988,0,0,0,1.044-.3l2.623-1.61a2,2,0,1,0-2.094-3.408l-2.622,1.61a2,2,0,0,0,1.049,3.7Z" fill="#c3c8f3"/>
      </g>
    </g>
  </g>
</svg>
